<svg version="1.1" id="Layer_1" xmlns="http://www.w3.org/2000/svg" xmlns:xlink="http://www.w3.org/1999/xlink" x="0px" y="0px"
	 width="100%" viewBox="0 0 225 225" enable-background="new 0 0 225 225" xml:space="preserve">
<path fill="#FDFDFD" opacity="1.000000" stroke="none" 
	d="
M226.000000,96.000000 
	C226.000000,139.217422 226.000000,182.434860 226.000000,226.000000 
	C214.981537,226.000000 203.959427,226.000000 192.628998,225.603271 
	C201.241486,224.248856 210.152313,223.177399 219.088242,222.391861 
	C222.461929,222.095291 223.651337,220.700760 223.623230,217.356506 
	C223.504211,203.194641 223.525360,189.030930 223.605164,174.868500 
	C223.625381,171.282608 222.251129,169.771851 218.557999,169.867218 
	C211.564545,170.047821 204.563080,169.911865 197.564972,169.920990 
	C191.200577,169.929291 191.065796,170.060638 191.059921,176.343460 
	C191.051132,185.777298 191.057632,195.211151 191.057632,205.159012 
	C185.004852,205.159012 179.526413,205.395737 174.075623,205.108398 
	C163.612427,204.556808 156.526260,198.458359 155.060532,188.115738 
	C154.155746,181.731339 154.235611,175.180847 154.208084,168.703491 
	C154.115479,146.924072 160.677948,140.425217 182.555191,140.780579 
	C194.544174,140.975311 206.532455,141.430893 218.509735,142.005005 
	C222.488602,142.195709 224.004242,140.858734 223.625107,136.881729 
	C223.357529,134.074646 223.418045,131.210831 223.611893,128.391586 
	C223.865219,124.707146 222.763626,122.896446 218.646255,122.852348 
	C214.177795,122.804482 209.723755,121.894539 205.253265,121.466515 
	C188.483261,119.860878 171.739761,118.799248 155.117722,122.931946 
	C134.409912,128.080490 123.287712,139.991867 121.546585,160.777313 
	C120.731857,170.503525 120.730507,180.563522 122.349945,190.135681 
	C123.451607,196.647446 127.134712,203.237030 131.217651,208.611023 
	C137.571381,216.973907 147.265488,220.624634 157.285736,223.081680 
	C161.194031,224.040024 165.095444,225.026398 169.000000,226.000000 
	C144.979111,226.000000 120.958214,226.000000 96.788879,225.845200 
	C102.851364,224.149246 107.247551,220.872986 107.926315,213.735382 
	C108.004265,213.502792 107.895157,213.024490 107.982697,212.561462 
	C108.011871,186.391846 107.953514,160.685257 107.950394,134.740128 
	C108.005630,134.501587 107.859001,134.034363 107.912094,133.653687 
	C107.264160,127.066132 103.844826,123.119179 97.728729,121.133011 
	C97.505539,121.037354 97.025436,121.110603 96.695587,120.999657 
	C95.908699,120.932411 95.451660,120.976120 94.533691,120.930298 
	C71.039360,120.830734 48.005936,120.801506 24.972586,120.830444 
	C21.340935,120.835007 17.709612,121.102684 13.730066,121.266632 
	C10.512175,123.720970 7.642355,126.157387 4.474051,128.867706 
	C3.861440,131.431992 3.280441,133.721695 3.274240,136.012924 
	C3.208176,160.423294 3.184241,184.834137 3.302429,209.244095 
	C3.315521,211.948151 4.282827,214.647598 4.858500,217.690613 
	C7.939605,220.688049 10.969800,223.344025 13.999998,226.000000 
	C9.678853,226.000000 5.357705,226.000000 1.000000,226.000000 
	C1.000000,178.645782 1.000000,131.291550 1.334332,83.610947 
	C3.721556,91.698090 9.118546,97.236458 16.933168,100.413124 
	C20.745918,101.963020 24.746061,103.255020 28.783518,104.014404 
	C47.783321,107.587982 66.959206,106.152512 86.087303,105.580338 
	C91.565315,105.416473 97.053123,104.854065 102.475266,104.057762 
	C103.837357,103.857727 105.826210,102.211014 106.063980,100.952682 
	C108.469177,88.224083 106.828789,86.301918 94.223930,86.301918 
	C85.725639,86.301918 77.227066,86.345161 68.729156,86.288078 
	C62.067017,86.243332 55.394974,86.266136 48.747768,85.893890 
	C44.246433,85.641808 40.489632,83.597809 40.156509,78.554405 
	C39.798962,73.141182 40.075802,67.686043 40.075802,61.999771 
	C57.336876,61.999771 74.139275,61.974682 90.941559,62.007069 
	C106.672668,62.037395 103.596497,62.511147 104.087578,48.912544 
	C104.252861,44.335686 102.091797,43.010326 98.170517,43.005131 
	C91.671837,42.996517 85.173141,43.000576 78.674454,43.000359 
	C65.897484,42.999928 53.120518,43.000229 40.007023,43.000229 
	C40.007023,39.434341 40.005798,36.305035 40.007256,33.175728 
	C40.011578,23.890499 42.504128,21.424126 51.874947,21.479290 
	C65.534950,21.559702 79.194748,21.684671 92.854843,21.737835 
	C108.607140,21.799143 105.454575,22.241903 105.876373,8.059835 
	C105.983170,4.469016 104.480232,3.057435 100.897751,2.819589 
	C96.245407,2.510712 91.630829,1.632914 87.000000,1.000000 
	C102.020897,1.000000 117.041786,1.000000 132.523849,1.210585 
	C132.985016,1.421171 132.948502,1.841022 132.717834,1.907651 
	C132.487152,1.974279 132.059708,2.193112 131.704666,2.190143 
	C124.809662,4.104849 121.214523,8.540975 121.181877,15.278766 
	C121.057961,40.855762 121.018166,66.434532 121.197784,92.010887 
	C121.260521,100.944336 125.394310,105.303917 134.504333,106.898743 
	C159.629227,106.983841 184.294357,107.006134 208.959335,106.955574 
	C210.500015,106.952415 212.039520,106.378433 213.892365,106.299553 
	C220.639709,105.823227 223.946274,101.613335 226.000000,96.000000 
z"/>
<path fill="#C4161C" opacity="1.000000" stroke="none" 
	d="
M134.044540,106.819359 
	C125.394310,105.303917 121.260521,100.944336 121.197784,92.010887 
	C121.018166,66.434532 121.057961,40.855762 121.181877,15.278766 
	C121.214523,8.540975 124.809662,4.104849 132.022522,2.447994 
	C133.345810,2.805111 133.996155,2.985215 134.646606,2.985609 
	C159.506195,3.000687 184.365829,3.011759 209.225311,2.963227 
	C210.467880,2.960801 211.709396,2.422371 213.229019,2.051020 
	C213.690750,1.910368 213.874863,1.852215 214.307114,1.859523 
	C214.712372,1.992638 214.869507,2.060293 215.097351,2.277819 
	C215.168045,2.427691 215.588760,2.558478 215.588760,2.558478 
	C215.588760,2.558478 215.947647,2.240974 216.307404,2.289164 
	C221.700119,4.209260 224.134048,8.356063 226.000000,13.000000 
	C226.000000,40.354229 226.000000,67.708458 226.000000,95.531342 
	C223.946274,101.613335 220.639709,105.823227 213.385849,106.285156 
	C187.812729,106.027390 163.058914,106.000000 138.305161,106.034813 
	C136.884583,106.036812 135.464737,106.546143 134.044540,106.819359 
z"/>
<path fill="#C4161C" opacity="1.000000" stroke="none" 
	d="
M107.848373,213.967957 
	C107.247551,220.872986 102.851364,224.149246 96.320221,225.845200 
	C68.979103,226.000000 41.958210,226.000000 14.468656,226.000000 
	C10.969800,223.344025 7.939605,220.688049 4.897758,217.199265 
	C4.848251,187.108917 4.810395,157.851364 4.772537,128.593811 
	C7.642355,126.157387 10.512175,123.720970 14.056232,121.509705 
	C40.758408,121.818909 66.786339,121.910858 92.814339,121.946190 
	C93.540688,121.947182 94.267853,121.342224 94.994629,121.019821 
	C95.451660,120.976120 95.908699,120.932411 96.766525,121.151291 
	C97.167313,121.413872 97.589531,121.549583 97.589531,121.549583 
	C97.589531,121.549583 97.951920,121.228676 97.951920,121.228676 
	C103.844826,123.119179 107.264160,127.066132 107.762650,133.743423 
	C107.671791,134.468796 107.783478,134.723724 107.895157,134.978668 
	C107.953514,160.685257 108.011871,186.391846 107.828125,212.640778 
	C107.524918,213.280396 107.389221,213.426208 107.415520,213.466614 
	C107.534836,213.649979 107.699821,213.803619 107.848373,213.967957 
z"/>
<path fill="#020202" opacity="1.000000" stroke="none" 
	d="
M86.571533,1.000000 
	C91.630829,1.632914 96.245407,2.510712 100.897751,2.819589 
	C104.480232,3.057435 105.983170,4.469016 105.876373,8.059835 
	C105.454575,22.241903 108.607140,21.799143 92.854843,21.737835 
	C79.194748,21.684671 65.534950,21.559702 51.874947,21.479290 
	C42.504128,21.424126 40.011578,23.890499 40.007256,33.175728 
	C40.005798,36.305035 40.007023,39.434341 40.007023,43.000229 
	C53.120518,43.000229 65.897484,42.999928 78.674454,43.000359 
	C85.173141,43.000576 91.671837,42.996517 98.170517,43.005131 
	C102.091797,43.010326 104.252861,44.335686 104.087578,48.912544 
	C103.596497,62.511147 106.672668,62.037395 90.941559,62.007069 
	C74.139275,61.974682 57.336876,61.999771 40.075802,61.999771 
	C40.075802,67.686043 39.798962,73.141182 40.156509,78.554405 
	C40.489632,83.597809 44.246433,85.641808 48.747768,85.893890 
	C55.394974,86.266136 62.067017,86.243332 68.729156,86.288078 
	C77.227066,86.345161 85.725639,86.301918 94.223930,86.301918 
	C106.828789,86.301918 108.469177,88.224083 106.063980,100.952682 
	C105.826210,102.211014 103.837357,103.857727 102.475266,104.057762 
	C97.053123,104.854065 91.565315,105.416473 86.087303,105.580338 
	C66.959206,106.152512 47.783321,107.587982 28.783518,104.014404 
	C24.746061,103.255020 20.745918,101.963020 16.933168,100.413124 
	C9.118546,97.236458 3.721556,91.698090 1.334332,83.142288 
	C1.000000,64.312439 1.000000,45.624878 1.250128,26.200523 
	C2.570975,22.543200 3.228636,19.377291 4.790307,16.748405 
	C9.369980,9.039072 17.150885,6.104270 25.306358,4.021775 
	C29.832958,2.865911 34.433041,1.997805 39.000000,1.000000 
	C50.020893,1.000000 61.041790,1.000000 72.752068,1.336624 
	C75.960968,1.448832 78.480484,1.224416 81.000000,1.000000 
	C82.714355,1.000000 84.428719,1.000000 86.571533,1.000000 
z"/>
<path fill="#030303" opacity="1.000000" stroke="none" 
	d="
M169.468628,226.000000 
	C165.095444,225.026398 161.194031,224.040024 157.285736,223.081680 
	C147.265488,220.624634 137.571381,216.973907 131.217651,208.611023 
	C127.134712,203.237030 123.451607,196.647446 122.349945,190.135681 
	C120.730507,180.563522 120.731857,170.503525 121.546585,160.777313 
	C123.287712,139.991867 134.409912,128.080490 155.117722,122.931946 
	C171.739761,118.799248 188.483261,119.860878 205.253265,121.466515 
	C209.723755,121.894539 214.177795,122.804482 218.646255,122.852348 
	C222.763626,122.896446 223.865219,124.707146 223.611893,128.391586 
	C223.418045,131.210831 223.357529,134.074646 223.625107,136.881729 
	C224.004242,140.858734 222.488602,142.195709 218.509735,142.005005 
	C206.532455,141.430893 194.544174,140.975311 182.555191,140.780579 
	C160.677948,140.425217 154.115479,146.924072 154.208084,168.703491 
	C154.235611,175.180847 154.155746,181.731339 155.060532,188.115738 
	C156.526260,198.458359 163.612427,204.556808 174.075623,205.108398 
	C179.526413,205.395737 185.004852,205.159012 191.057632,205.159012 
	C191.057632,195.211151 191.051132,185.777298 191.059921,176.343460 
	C191.065796,170.060638 191.200577,169.929291 197.564972,169.920990 
	C204.563080,169.911865 211.564545,170.047821 218.557999,169.867218 
	C222.251129,169.771851 223.625381,171.282608 223.605164,174.868500 
	C223.525360,189.030930 223.504211,203.194641 223.623230,217.356506 
	C223.651337,220.700760 222.461929,222.095291 219.088242,222.391861 
	C210.152313,223.177399 201.241486,224.248856 192.160339,225.603271 
	C184.645752,226.000000 177.291504,226.000000 169.468628,226.000000 
z"/>
<path fill="#FAFAFA" opacity="1.000000" stroke="none" 
	d="
M38.531342,1.000000 
	C34.433041,1.997805 29.832958,2.865911 25.306358,4.021775 
	C17.150885,6.104270 9.369980,9.039072 4.790307,16.748405 
	C3.228636,19.377291 2.570975,22.543200 1.250128,25.731865 
	C1.000000,17.724974 1.000000,9.449949 1.000000,1.000000 
	C13.353772,1.000000 25.708227,1.000000 38.531342,1.000000 
z"/>
<path fill="#E9BCBC" opacity="1.000000" stroke="none" 
	d="
M214.058975,1.794062 
	C213.874863,1.852215 213.690750,1.910368 212.766708,1.993924 
	C185.667358,1.959892 159.307922,1.900457 132.948502,1.841022 
	C132.948502,1.841022 132.985016,1.421171 132.992508,1.210585 
	C159.687561,1.000000 186.375122,1.000000 213.544617,1.198624 
	C214.026566,1.397248 214.058975,1.794062 214.058975,1.794062 
z"/>
<path fill="#FBF2F2" opacity="1.000000" stroke="none" 
	d="
M214.307114,1.859523 
	C214.058975,1.794062 214.026566,1.397248 214.013275,1.198624 
	C217.921982,1.000000 221.843964,1.000000 226.000000,1.000000 
	C226.000000,4.678595 226.000000,8.360122 226.000000,12.520824 
	C224.134048,8.356063 221.700119,4.209260 216.085236,2.195029 
	C215.503326,2.052705 215.026642,2.127947 215.026642,2.127947 
	C214.869507,2.060293 214.712372,1.992638 214.307114,1.859523 
z"/>
<path fill="#797979" opacity="1.000000" stroke="none" 
	d="
M80.555832,1.000000 
	C78.480484,1.224416 75.960968,1.448832 73.220726,1.336624 
	C75.370560,1.000000 77.741112,1.000000 80.555832,1.000000 
z"/>
<path fill="#CD3B41" opacity="1.000000" stroke="none" 
	d="
M4.474052,128.867706 
	C4.810395,157.851364 4.848251,187.108917 4.846849,216.857819 
	C4.282827,214.647598 3.315521,211.948151 3.302429,209.244095 
	C3.184241,184.834137 3.208176,160.423294 3.274240,136.012924 
	C3.280441,133.721695 3.861440,131.431992 4.474052,128.867706 
z"/>
<path fill="#C10000" opacity="1.000000" stroke="none" 
	d="
M132.717834,1.907651 
	C159.307922,1.900457 185.667358,1.959892 212.489090,2.076423 
	C211.709396,2.422371 210.467880,2.960801 209.225311,2.963227 
	C184.365829,3.011759 159.506195,3.000687 134.646606,2.985609 
	C133.996155,2.985215 133.345810,2.805111 132.377563,2.450963 
	C132.059708,2.193112 132.487152,1.974279 132.717834,1.907651 
z"/>
<path fill="#C10000" opacity="1.000000" stroke="none" 
	d="
M94.533691,120.930298 
	C94.267853,121.342224 93.540688,121.947182 92.814339,121.946190 
	C66.786339,121.910858 40.758408,121.818909 14.404305,121.491783 
	C17.709612,121.102684 21.340935,120.835007 24.972586,120.830444 
	C48.005936,120.801506 71.039360,120.830734 94.533691,120.930298 
z"/>
<path fill="#C30000" opacity="1.000000" stroke="none" 
	d="
M134.504333,106.898743 
	C135.464737,106.546143 136.884583,106.036812 138.305161,106.034813 
	C163.058914,106.000000 187.812729,106.027390 213.073059,106.055626 
	C212.039520,106.378433 210.500015,106.952415 208.959335,106.955574 
	C184.294357,107.006134 159.629227,106.983841 134.504333,106.898743 
z"/>
<path fill="#C10000" opacity="1.000000" stroke="none" 
	d="
M97.728729,121.133011 
	C97.951920,121.228676 97.589531,121.549583 97.589531,121.549583 
	C97.589531,121.549583 97.167313,121.413872 97.096375,121.262238 
	C97.025436,121.110603 97.505539,121.037354 97.728729,121.133011 
z"/>
<path fill="#C10000" opacity="1.000000" stroke="none" 
	d="
M107.950394,134.740128 
	C107.783478,134.723724 107.671791,134.468796 107.709557,134.124115 
	C107.859001,134.034363 108.005630,134.501587 107.950394,134.740128 
z"/>
<path fill="#C10000" opacity="1.000000" stroke="none" 
	d="
M107.926323,213.735382 
	C107.699821,213.803619 107.534836,213.649979 107.415520,213.466614 
	C107.389221,213.426208 107.524918,213.280396 107.740585,213.103806 
	C107.895157,213.024490 108.004265,213.502792 107.926323,213.735382 
z"/>
<path fill="#C10000" opacity="1.000000" stroke="none" 
	d="
M215.097351,2.277819 
	C215.026642,2.127947 215.503326,2.052705 215.725494,2.146839 
	C215.947647,2.240974 215.588760,2.558478 215.588760,2.558478 
	C215.588760,2.558478 215.168045,2.427691 215.097351,2.277819 
z"/>
</svg>